<svg xmlns="http://www.w3.org/2000/svg" width="47.241" height="47.241"><defs><linearGradient id="b" x2="1" gradientTransform="matrix(30546 0 0 -30546 -18800 18800)" gradientUnits="userSpaceOnUse"><stop offset="0" stop-color="#c7edf2"/><stop offset=".398" stop-color="#65beec"/><stop offset=".786" stop-color="#3050aa"/><stop offset="1" stop-color="#293e91"/></linearGradient><linearGradient id="d" x2="1" gradientTransform="matrix(49118 0 0 -49118 -36601 17755)" gradientUnits="userSpaceOnUse"><stop offset="0" stop-color="#c7edf2"/><stop offset=".398" stop-color="#65beec"/><stop offset=".786" stop-color="#3050aa"/><stop offset="1" stop-color="#293e91"/></linearGradient><linearGradient id="f" x2="1" gradientTransform="matrix(62727 0 0 -62727 -46180 14900)" gradientUnits="userSpaceOnUse"><stop offset="0" stop-color="#c7edf2"/><stop offset=".398" stop-color="#65beec"/><stop offset=".786" stop-color="#3050aa"/><stop offset="1" stop-color="#293e91"/></linearGradient><linearGradient id="h" x2="1" gradientTransform="matrix(67702 0 0 -67702 -45410 11000)" gradientUnits="userSpaceOnUse"><stop offset="0" stop-color="#c7edf2"/><stop offset=".398" stop-color="#65beec"/><stop offset=".786" stop-color="#3050aa"/><stop offset="1" stop-color="#293e91"/></linearGradient><linearGradient id="j" x2="1" gradientTransform="matrix(62727 0 0 -62727 -35408 7100.2)" gradientUnits="userSpaceOnUse"><stop offset="0" stop-color="#c7edf2"/><stop offset=".398" stop-color="#65beec"/><stop offset=".786" stop-color="#3050aa"/><stop offset="1" stop-color="#293e91"/></linearGradient><linearGradient id="l" x2="1" gradientTransform="matrix(49118 0 0 -49118 -19733 4245.3)" gradientUnits="userSpaceOnUse"><stop offset="0" stop-color="#c7edf2"/><stop offset=".398" stop-color="#65beec"/><stop offset=".786" stop-color="#3050aa"/><stop offset="1" stop-color="#293e91"/></linearGradient><linearGradient id="n" x2="1" gradientTransform="matrix(30546 0 0 -30546 -3064.9 3200.3)" gradientUnits="userSpaceOnUse"><stop offset="0" stop-color="#c7edf2"/><stop offset=".398" stop-color="#65beec"/><stop offset=".786" stop-color="#3050aa"/><stop offset="1" stop-color="#293e91"/></linearGradient><linearGradient id="p" x2="1" gradientTransform="matrix(49118 0 0 -49118 -3499.5 4245.3)" gradientUnits="userSpaceOnUse"><stop offset="0" stop-color="#c7edf2"/><stop offset=".398" stop-color="#65beec"/><stop offset=".786" stop-color="#3050aa"/><stop offset="1" stop-color="#293e91"/></linearGradient><linearGradient id="r" x2="1" gradientTransform="matrix(62727 0 0 -62727 -357.6 7100.2)" gradientUnits="userSpaceOnUse"><stop offset="0" stop-color="#c7edf2"/><stop offset=".398" stop-color="#65beec"/><stop offset=".786" stop-color="#3050aa"/><stop offset="1" stop-color="#293e91"/></linearGradient><linearGradient id="t" x2="1" gradientTransform="matrix(67702 0 0 -67702 5063.8 11000)" gradientUnits="userSpaceOnUse"><stop offset="0" stop-color="#c7edf2"/><stop offset=".398" stop-color="#65beec"/><stop offset=".786" stop-color="#3050aa"/><stop offset="1" stop-color="#293e91"/></linearGradient><linearGradient id="v" x2="1" gradientTransform="matrix(62727 0 0 -62727 10414 14900)" gradientUnits="userSpaceOnUse"><stop offset="0" stop-color="#c7edf2"/><stop offset=".398" stop-color="#65beec"/><stop offset=".786" stop-color="#3050aa"/><stop offset="1" stop-color="#293e91"/></linearGradient><linearGradient id="x" x2="1" gradientTransform="matrix(49118 0 0 -49118 13368 17755)" gradientUnits="userSpaceOnUse"><stop offset="0" stop-color="#c7edf2"/><stop offset=".398" stop-color="#65beec"/><stop offset=".786" stop-color="#3050aa"/><stop offset="1" stop-color="#293e91"/></linearGradient><clipPath id="a"><path d="M11000 16609c-544.9 0-988.2 443.3-988.2 988.2v2404.2c0 544.9 443.3 988.2 988.2 988.2s988.2-443.3 988.2-988.2v-2404.2c0-544.9-443.3-988.2-988.2-988.2z"/></clipPath><clipPath id="c"><path d="M7701.6 15725c-352.14 0-680.23 189.4-856.22 494.2l-1202.1 2082c-272.46 472-110.19 1077.5 361.72 1350 150.09 86.7 320.83 132.5 493.74 132.5 352.13 0 680.21-189.4 856.21-494.2l1202.1-2082.1c272.46-471.9 110.18-1077.5-361.72-1349.9-150.1-86.7-320.83-132.5-493.74-132.5z"/></clipPath><clipPath id="e"><path d="M5285.9 13310c-172.89 0-343.63 45.8-493.73 132.5l-2082.1 1202.1c-228.6 131.9-392.13 345-460.45 600s-33.26 521.3 98.73 749.9c175.99 304.8 504.07 494.2 856.21 494.2 172.91 0 343.64-45.8 493.73-132.5l2082.1-1202.1c471.9-272.4 634.17-878 361.72-1349.9-175.99-304.8-504.08-494.2-856.23-494.2z"/></clipPath><clipPath id="g"><path d="M1998.2 10012c-544.92 0-988.24 443.3-988.24 988.2s443.32 988.2 988.24 988.2h2404.2c544.92 0 988.24-443.3 988.24-988.2s-443.32-988.2-988.24-988.2z"/></clipPath><clipPath id="i"><path d="M3204.6 5510.8c-352.14 0-680.22 189.4-856.22 494.2-272.45 471.9-110.19 1077.5 361.71 1350l2082.1 1202c150.1 86.7 320.84 132.5 493.73 132.5 352.15 0 680.24-189.4 856.23-494.2 131.98-228.6 167.04-494.9 98.72-749.9s-231.85-468.1-460.44-600l-2082.1-1202.1c-150.1-86.7-320.83-132.5-493.74-132.5z"/></clipPath><clipPath id="k"><path d="M6498.7 2215.9c-172.9 0-343.64 45.8-493.74 132.5-471.91 272.5-634.17 878.1-361.72 1350l1202.1 2082c175.99 304.9 504.08 494.2 856.22 494.2 172.9 0 343.63-45.8 493.74-132.5 471.9-272.4 634.18-878 361.72-1349.9l-1202.1-2082.1c-176.01-304.8-504.09-494.2-856.22-494.2z"/></clipPath><clipPath id="m"><path d="M11000 1010c-544.9 0-988.2 443.3-988.2 988.2v2404.2c0 544.9 443.3 988.2 988.2 988.2s988.2-443.3 988.2-988.2V1998.2c0-544.9-443.3-988.2-988.2-988.2z"/></clipPath><clipPath id="o"><path d="M15501 2215.9c-352.2 0-680.2 189.4-856.3 494.2l-1202 2082.1c-272.5 471.9-110.2 1077.5 361.7 1349.9 150.1 86.7 320.8 132.5 493.7 132.5 352.2 0 680.3-189.3 856.2-494.2l1202.1-2082c272.5-471.9 110.2-1077.5-361.7-1350-150.1-86.7-320.8-132.5-493.7-132.5z"/></clipPath><clipPath id="q"><path d="M18795 5510.8c-172.9 0-343.7 45.8-493.8 132.5l-2082 1202.1c-228.6 131.9-392.2 345-460.5 600s-33.2 521.3 98.8 749.9c175.9 304.8 504 494.2 856.2 494.2 172.9 0 343.6-45.8 493.7-132.5l2082.1-1202c471.9-272.5 634.1-878.1 361.7-1350-176-304.8-504.1-494.2-856.2-494.2z"/></clipPath><clipPath id="s"><path d="M17598 10012c-544.9 0-988.2 443.3-988.2 988.2s443.3 988.2 988.2 988.2h2404.2c544.9 0 988.2-443.3 988.2-988.2s-443.3-988.2-988.2-988.2z"/></clipPath><clipPath id="u"><path d="M16714 13310c-352.2 0-680.3 189.4-856.2 494.2-272.5 471.9-110.2 1077.5 361.7 1349.9l2082 1202.1c150.1 86.7 320.9 132.5 493.8 132.5 352.1 0 680.2-189.4 856.2-494.2 132-228.6 167-494.9 98.7-749.9s-231.8-468.1-460.4-600.1l-2082.1-1202c-150.1-86.7-320.8-132.5-493.7-132.5z"/></clipPath><clipPath id="w"><path d="M14298 15725c-172.9 0-343.6 45.8-493.7 132.5-471.9 272.4-634.2 878-361.7 1349.9l1202 2082.1c176.1 304.8 504.1 494.2 856.3 494.2 172.9 0 343.6-45.8 493.7-132.5 471.9-272.5 634.2-878 361.7-1349.9l-1202.1-2082.1c-175.9-304.8-504-494.2-856.2-494.2z"/></clipPath></defs><path fill="url(#b)" d="M11000 16609c-544.9 0-988.2 443.3-988.2 988.2v2404.2c0 544.9 443.3 988.2 988.2 988.2s988.2-443.3 988.2-988.2v-2404.2c0-544.9-443.3-988.2-988.2-988.2" clip-path="url(#a)" transform="matrix(.00236 0 0 -.00236 -2.388 49.628)"/><path fill="url(#d)" d="M7701.6 15725c-352.14 0-680.23 189.4-856.22 494.2l-1202.1 2082c-272.46 472-110.19 1077.5 361.72 1350 150.09 86.7 320.83 132.5 493.74 132.5 352.13 0 680.21-189.4 856.21-494.2l1202.1-2082.1c272.46-471.9 110.18-1077.5-361.72-1349.9-150.1-86.7-320.83-132.5-493.74-132.5" clip-path="url(#c)" transform="matrix(.00236 0 0 -.00236 -2.388 49.628)"/><path fill="url(#f)" d="M5285.9 13310c-172.89 0-343.63 45.8-493.73 132.5l-2082.1 1202.1c-228.6 131.9-392.13 345-460.45 600s-33.26 521.3 98.73 749.9c175.99 304.8 504.07 494.2 856.21 494.2 172.91 0 343.64-45.8 493.73-132.5l2082.1-1202.1c471.9-272.4 634.17-878 361.72-1349.9-175.99-304.8-504.08-494.2-856.23-494.2" clip-path="url(#e)" transform="matrix(.00236 0 0 -.00236 -2.388 49.628)"/><path fill="url(#h)" d="M1998.2 10012c-544.92 0-988.24 443.3-988.24 988.2s443.32 988.2 988.24 988.2h2404.2c544.92 0 988.24-443.3 988.24-988.2s-443.32-988.2-988.24-988.2H1998.2" clip-path="url(#g)" transform="matrix(.00236 0 0 -.00236 -2.388 49.628)"/><path fill="url(#j)" d="M3204.6 5510.8c-352.14 0-680.22 189.4-856.22 494.2-272.45 471.9-110.19 1077.5 361.71 1350l2082.1 1202c150.1 86.7 320.84 132.5 493.73 132.5 352.15 0 680.24-189.4 856.23-494.2 131.98-228.6 167.04-494.9 98.72-749.9s-231.85-468.1-460.44-600l-2082.1-1202.1c-150.1-86.7-320.83-132.5-493.74-132.5" clip-path="url(#i)" transform="matrix(.00236 0 0 -.00236 -2.388 49.628)"/><path fill="url(#l)" d="M6498.7 2215.9c-172.9 0-343.64 45.8-493.74 132.5-471.91 272.5-634.17 878.1-361.72 1350l1202.1 2082c175.99 304.9 504.08 494.2 856.22 494.2 172.9 0 343.63-45.8 493.74-132.5 471.9-272.4 634.18-878 361.72-1349.9l-1202.1-2082.1c-176.01-304.8-504.09-494.2-856.22-494.2" clip-path="url(#k)" transform="matrix(.00236 0 0 -.00236 -2.388 49.628)"/><path fill="url(#n)" d="M11000 1010c-544.9 0-988.2 443.3-988.2 988.2v2404.2c0 544.9 443.3 988.2 988.2 988.2s988.2-443.3 988.2-988.2V1998.2c0-544.9-443.3-988.2-988.2-988.2" clip-path="url(#m)" transform="matrix(.00236 0 0 -.00236 -2.388 49.628)"/><path fill="url(#p)" d="M15501 2215.9c-352.2 0-680.2 189.4-856.3 494.2l-1202 2082.1c-272.5 471.9-110.2 1077.5 361.7 1349.9 150.1 86.7 320.8 132.5 493.7 132.5 352.2 0 680.3-189.3 856.2-494.2l1202.1-2082c272.5-471.9 110.2-1077.5-361.7-1350-150.1-86.7-320.8-132.5-493.7-132.5" clip-path="url(#o)" transform="matrix(.00236 0 0 -.00236 -2.388 49.628)"/><path fill="url(#r)" d="M18795 5510.8c-172.9 0-343.7 45.8-493.8 132.5l-2082 1202.1c-228.6 131.9-392.2 345-460.5 600s-33.2 521.3 98.8 749.9c175.9 304.8 504 494.2 856.2 494.2 172.9 0 343.6-45.8 493.7-132.5l2082.1-1202c471.9-272.5 634.1-878.1 361.7-1350-176-304.8-504.1-494.2-856.2-494.2" clip-path="url(#q)" transform="matrix(.00236 0 0 -.00236 -2.388 49.628)"/><path fill="url(#t)" d="M17598 10012c-544.9 0-988.2 443.3-988.2 988.2s443.3 988.2 988.2 988.2h2404.2c544.9 0 988.2-443.3 988.2-988.2s-443.3-988.2-988.2-988.2H17598" clip-path="url(#s)" transform="matrix(.00236 0 0 -.00236 -2.388 49.628)"/><path fill="url(#v)" d="M16714 13310c-352.2 0-680.3 189.4-856.2 494.2-272.5 471.9-110.2 1077.5 361.7 1349.9l2082 1202.1c150.1 86.7 320.9 132.5 493.8 132.5 352.1 0 680.2-189.4 856.2-494.2 132-228.6 167-494.9 98.7-749.9s-231.8-468.1-460.4-600.1l-2082.1-1202c-150.1-86.7-320.8-132.5-493.7-132.5" clip-path="url(#u)" transform="matrix(.00236 0 0 -.00236 -2.388 49.628)"/><path fill="url(#x)" d="M14298 15725c-172.9 0-343.6 45.8-493.7 132.5-471.9 272.4-634.2 878-361.7 1349.9l1202 2082.1c176.1 304.8 504.1 494.2 856.3 494.2 172.9 0 343.6-45.8 493.7-132.5 471.9-272.5 634.2-878 361.7-1349.9l-1202.1-2082.1c-175.9-304.8-504-494.2-856.2-494.2" clip-path="url(#w)" transform="matrix(.00236 0 0 -.00236 -2.388 49.628)"/></svg>